# xmcd CD database file
#
# Track frame offsets:
#	150
#	13654
#	26491
#	41736
#	53439
#	67202
#	76941
#	90851
#	104734
#	135782
#	151741
#	177295
#
# Disc length: 2503 seconds
#
# Revision: 0
# Processed by: cddbd v1.4PL0 Copyright (c) Steve Scherf et al.
# Submitted via: CDex 1.40Release
#
DISCID=8809c50c
DTITLE=BB King - Rock Me Lord
DYEAR=1900
DGENRE=Blues
TTITLE0=Army of the Lord
TTITLE1=Im Working on the Building
TTITLE2=Precious Lord
TTITLE3=I Never Heard a Man
TTITLE4=Servants Prayer
TTITLE5=Swing Low Sweet Chariot/Rock Me Lord
TTITLE6=Save a Seat for Jesus
TTITLE7=Jesus Gave me Water
TTITLE8=Outside Help
TTITLE9=Long Nights
TTITLE10=Guess Who
TTITLE11=Im Willing to Run all the Way
EXTD=ID3G: 0
EXTT0=
EXTT1=
EXTT2=
EXTT3=
EXTT4=
EXTT5=
EXTT6=
EXTT7=
EXTT8=
EXTT9=
EXTT10=
EXTT11=
PLAYORDER=
